<svg width="64" height="64" viewBox="0 0 64 64" fill="none" xmlns="http://www.w3.org/2000/svg">
<g clip-path="url(#clip0_64_1697)">
<path d="M19.4801 14.4621C19.8682 14.3197 20.297 14.3373 20.6721 14.5111C21.0472 14.6848 21.338 15.0004 21.4804 15.3886L23.2702 20.2664C23.4126 20.6545 23.395 21.0833 23.2213 21.4585C23.0475 21.8336 22.7319 22.1243 22.3438 22.2667C21.9557 22.4091 21.5269 22.3915 21.1518 22.2178C20.7766 22.0441 20.4859 21.7284 20.3435 21.3403L18.5537 16.4624C18.4113 16.0743 18.4289 15.6455 18.6026 15.2704C18.7763 14.8953 19.092 14.6045 19.4801 14.4621ZM11.5639 21.728C11.7378 21.3533 12.0532 21.0629 12.441 20.9206C12.8288 20.7783 13.2572 20.7958 13.6322 20.9691L18.2995 23.1308C18.4925 23.212 18.6671 23.3312 18.8129 23.4814C18.9588 23.6316 19.0729 23.8096 19.1484 24.0048C19.224 24.2 19.2595 24.4084 19.2527 24.6176C19.246 24.8269 19.1972 25.0326 19.1092 25.2225C19.0212 25.4125 18.8959 25.5827 18.7407 25.7232C18.5855 25.8637 18.4036 25.9714 18.2058 26.0401C18.0081 26.1087 17.7985 26.1368 17.5896 26.1227C17.3808 26.1085 17.1769 26.0525 16.9902 25.9579L12.3228 23.7962C11.9481 23.6224 11.6577 23.3069 11.5154 22.9191C11.3731 22.5314 11.3906 22.1029 11.5639 21.728ZM30.217 14.8838C30.5917 15.0576 30.8821 15.3731 31.0244 15.7609C31.1667 16.1487 31.1492 16.5771 30.9758 16.952L28.8142 21.6194C28.733 21.8123 28.6137 21.9869 28.4636 22.1328C28.3134 22.2786 28.1354 22.3927 27.9402 22.4683C27.745 22.5439 27.5365 22.5793 27.3273 22.5726C27.1181 22.5658 26.9124 22.517 26.7224 22.4291C26.5325 22.3411 26.3622 22.2158 26.2218 22.0605C26.0813 21.9053 25.9735 21.7234 25.9049 21.5257C25.8363 21.3279 25.8082 21.1184 25.8223 20.9095C25.8364 20.7006 25.8925 20.4968 25.9871 20.3101L28.1487 15.6427C28.3226 15.268 28.638 14.9776 29.0258 14.8353C29.4136 14.693 29.842 14.7104 30.217 14.8838ZM11.1423 32.4649C10.9999 32.0768 11.0175 31.648 11.1912 31.2729C11.365 30.8977 11.6806 30.607 12.0687 30.4646L16.9466 28.6748C17.3347 28.5324 17.7635 28.55 18.1386 28.7237C18.5137 28.8974 18.8045 29.2131 18.9469 29.6012C19.0893 29.9893 19.0717 30.4181 18.898 30.7932C18.7242 31.1683 18.4086 31.4591 18.0205 31.6015L13.1426 33.3913C12.7545 33.5337 12.3257 33.5161 11.9506 33.3424C11.5754 33.1686 11.2847 32.853 11.1423 32.4649ZM23.3768 29.6074C22.57 27.4084 24.7141 25.2757 26.9078 26.0957L48.6084 34.188C50.9424 35.0584 50.9991 38.3385 48.6987 39.291L41.3158 42.3387C40.5214 42.6656 39.8961 43.3024 39.5774 44.099L36.569 51.6716C35.6409 54.0113 32.3144 53.9655 31.4474 51.6027L23.3775 29.6093L23.3768 29.6074Z" fill="#E67B19"/>
</g>
<defs>
<clipPath id="clip0_64_1697">
<rect width="49.8804" height="49.8804" fill="white" transform="translate(0 17.1821) rotate(-20.1492)"/>
</clipPath>
</defs>
</svg>
